<?xml version="1.0" encoding="UTF-8"?>
<svg xmlns="http://www.w3.org/2000/svg" viewBox="0 0 400 400" role="img" aria-label="Pigeon">
  <g fill="#ffffff">
    <path d="M120.468147,21.381325 C150.957001,7.007360 182.981934,2.511711 215.769806,4.990532 C264.741272,8.692862 307.189270,27.724031 341.749084,63.034561 C371.673706,93.609230 390.084351,129.914551 395.508698,172.659744 C400.219971,209.785522 396.896851,245.893478 381.415894,280.148102 C359.249359,329.195953 323.539032,364.613953 273.029633,384.369141 C248.739410,393.869568 223.576569,399.261566 197.418854,398.134613 C129.008820,395.187317 74.925789,365.637848 36.818604,308.706299 C19.690449,283.117065 9.356023,254.531311 6.509281,223.433182 C0.360511,156.263382 21.346617,99.472046 70.926376,53.611313 C85.437164,40.188988 101.969215,29.535603 120.468147,21.381325 M270.387939,108.192596 C275.618103,117.372398 279.516052,127.079475 281.337250,137.501389 C282.081421,141.759766 284.215179,144.517975 287.657196,147.061478 C304.841034,159.759628 321.036224,173.620041 335.232330,189.657059 C341.298767,196.510147 347.458191,203.404449 349.494049,212.773529 C350.531921,217.549881 348.457794,219.830002 343.695984,219.141724 C342.056458,218.904755 340.458221,218.381500 338.841492,217.987427 C319.818604,213.350662 300.455200,210.393539 280.983795,212.447937 C252.188278,215.486099 242.250076,231.618851 242.618347,257.128632 C242.830902,271.852905 247.283859,285.860596 252.465714,299.661438 C259.429108,318.207214 265.145691,337.132721 267.592407,356.939240 C268.054932,360.683441 267.341187,364.986176 270.126678,368.296021 C317.061981,351.057007 380.640472,291.725525 381.418518,201.259262 C382.126129,118.984360 326.737000,47.228451 247.962952,26.676783 C164.460785,4.891574 82.985291,41.991894 42.807281,114.625771 C9.980222,173.970566 20.332239,252.160095 41.899414,281.980133 C46.056343,276.605194 48.612194,270.544464 50.950127,264.290161 C58.917362,242.976685 62.716553,220.696869 66.730515,198.441345 C70.801041,175.872192 74.669456,153.279358 83.538956,131.858078 C100.847382,90.055397 140.921997,56.608147 193.015991,60.710079 C226.376907,63.336948 252.460632,78.618561 270.387939,108.192596 M75.957253,296.457520 C69.154053,296.298950 62.318226,295.387573 55.583069,297.069519 C50.880104,298.243958 50.315563,299.537689 53.062222,303.583221 C57.925316,310.746033 63.141083,317.649292 69.137230,323.929108 C91.349602,347.192261 116.816727,365.339447 148.279907,373.897461 C153.747467,375.384613 159.292816,377.335754 165.236130,376.342041 C160.386276,343.455292 121.047539,305.242371 75.957253,296.457520 M170.878464,171.725739 C182.350723,175.779358 192.971878,174.071259 202.157852,166.185440 C211.449387,158.208984 215.138840,147.898987 212.612289,135.748596 C208.134933,114.216660 181.203903,104.033890 163.665161,117.167091 C143.958481,131.923676 147.376968,160.484970 170.878464,171.725739 M293.165527,171.349884 C288.533569,167.822983 283.781067,164.469177 278.666992,161.673325 C276.790985,160.647690 274.883545,159.587173 272.576813,159.852905 C263.079193,160.946991 251.725357,173.430832 251.251633,182.916107 C251.040131,187.151199 252.349136,188.759674 256.752319,188.984711 C273.992737,189.865799 291.165741,191.448608 307.974518,195.735489 C312.184998,196.809326 316.339264,198.345230 321.791504,198.288239 C312.766602,188.193207 303.602844,179.623199 293.165527,171.349884 z"/>
    <path d="M164.621384,142.091873 C165.557266,130.660858 172.520447,124.145866 182.761856,124.686325 C192.462006,125.198235 200.468567,133.709045 200.133820,143.152374 C199.780228,153.126877 192.241592,160.504852 182.440079,160.468979 C171.919250,160.430496 164.941574,153.415634 164.621384,142.091873 z"/>
  </g>
</svg>
